<?xml version="1.0" encoding="iso-8859-1"?>
<!-- Generator: Adobe Illustrator 19.0.0, SVG Export Plug-In . SVG Version: 6.00 Build 0)  -->
<svg version="1.1" id="Layer_1" xmlns="http://www.w3.org/2000/svg" xmlns:xlink="http://www.w3.org/1999/xlink" x="0px" y="0px"
	 viewBox="0 0 460 460" style="enable-background:new 0 0 460 460;" xml:space="preserve">
<g id="XMLID_1307_">
	<path id="XMLID_312_" style="fill:#CA7D69;" d="M410,260v20v40h-12.568H240h-10.586H40H11.622C5.206,320,0.003,314.8,0,308.384l0,0
		c0-63.513,51.487-115,115-115c42.196,0,79.068,22.736,99.075,56.616h80.175c19.358-12.393,31.471-34.924,29.113-59.685L312.857,80
		H255c-8.525,0-15.389-7.111-14.983-15.725c0.38-8.068,7.33-14.275,15.406-14.275H310h10h0.35c28.808,0,53.55,20.474,58.94,48.773
		L410,260z"/>
	<path id="XMLID_240_" style="fill:#A66E60;" d="M436.336,266.29c0,15.54-14.024,27.412-29.319,24.659
		c-3.466-0.624-7.035-0.949-10.681-0.949c-26.936,0-49.726,17.75-57.313,42.191C335.762,342.696,326.248,350,315.249,350h-0.24
		c-16.692,0-28.784-16.103-23.924-32.072C304.812,272.821,346.741,240,396.336,240c6.63,0,13.122,0.589,19.428,1.716
		C427.667,243.842,436.336,254.197,436.336,266.29L436.336,266.29z"/>
	<path id="XMLID_236_" style="fill:#D88877;" d="M434.442,256.806c-5.362,1.998-11.324,2.653-17.443,1.552
		c-4.65-0.837-9.439-1.274-14.331-1.274c-36.139,0-66.717,23.814-76.895,56.607c-4.375,14.095-17.139,23.894-31.897,23.894h-0.322
		c-0.054,0-0.107-0.005-0.161-0.005c-3.318-5.674-4.431-12.675-2.308-19.652C304.812,272.821,346.741,240,396.335,240
		c6.63,0,13.122,0.589,19.428,1.716C424.376,243.254,431.275,249.111,434.442,256.806z"/>
	<path id="XMLID_311_" style="fill:#4C4C4B;" d="M312.857,80H255c-8.284,0-15-6.716-15-15s6.716-15,15-15h55L312.857,80z M180,160
		H45c-13.807,0-25,11.193-25,25l0,0c0,13.807,11.193,25,25,25h135c13.807,0,25-11.193,25-25l0,0C205,171.193,193.807,160,180,160z"
		/>
	<path id="XMLID_902_" style="fill:#4C4C4B;" d="M112.5,410c-35.899,0-65-29.102-65-65s29.101-65,65-65s65,29.102,65,65
		S148.399,410,112.5,410z M460,345c0-35.898-29.102-65-65-65s-65,29.102-65,65s29.102,65,65,65S460,380.898,460,345z"/>
	<path id="XMLID_350_" style="fill:#D7D5C8;" d="M112.5,370c-13.807,0-25-11.193-25-25s11.193-25,25-25s25,11.193,25,25
		S126.307,370,112.5,370z M420,345c0-13.807-11.193-25-25-25s-25,11.193-25,25s11.193,25,25,25S420,358.807,420,345z"/>
</g>
<g>
</g>
<g>
</g>
<g>
</g>
<g>
</g>
<g>
</g>
<g>
</g>
<g>
</g>
<g>
</g>
<g>
</g>
<g>
</g>
<g>
</g>
<g>
</g>
<g>
</g>
<g>
</g>
<g>
</g>
</svg>
